<svg width="20" height="20" viewBox="0 0 20 20" fill="none" xmlns="http://www.w3.org/2000/svg">
<path d="M7.5 15V4.16667L17.5 2.5V13.3333" stroke="#EC4899" stroke-width="1.66667" stroke-linecap="round" stroke-linejoin="round"/>
<path d="M5 17.5C6.38071 17.5 7.5 16.3807 7.5 15C7.5 13.6193 6.38071 12.5 5 12.5C3.61929 12.5 2.5 13.6193 2.5 15C2.5 16.3807 3.61929 17.5 5 17.5Z" stroke="#EC4899" stroke-width="1.66667" stroke-linecap="round" stroke-linejoin="round"/>
<path d="M15 15.833C16.3807 15.833 17.5 14.7137 17.5 13.333C17.5 11.9523 16.3807 10.833 15 10.833C13.6193 10.833 12.5 11.9523 12.5 13.333C12.5 14.7137 13.6193 15.833 15 15.833Z" stroke="#EC4899" stroke-width="1.66667" stroke-linecap="round" stroke-linejoin="round"/>
</svg>
